<svg xmlns="http://www.w3.org/2000/svg" viewBox="0 0 1000 1000" xml:space="preserve"><path d="M990 953.9c0-1.5-.2-7.9-.5-9.2l-8.3-628.9c0-1.1-.3-2.1-.5-3.2-.1-.7-.1-1.4-.3-2.1-.6-2.1-1.5-4.2-2.8-6-.4-.7-1.1-1.1-1.7-1.7-1-1.1-2-2.1-3.3-3-.4-.3-.7-.8-1.2-1.1L510.1 22.2c-.8-.5-1.7-.5-2.5-.9-1.3-.6-2.6-1.1-4-1.4-1.3-.2-2.5-.2-3.8-.2-1.3 0-2.5 0-3.8.2-1.4.3-2.6.8-3.9 1.4-.8.4-1.7.4-2.6.9l-464 276.7c-.3.2-.5.5-.8.7-1.7 1.1-3.1 2.4-4.3 3.9-.3.3-.6.6-.9 1-1.3 1.9-2.3 4-2.9 6.2-.2.6-.2 1.2-.3 1.8-.2 1.1-.5 2.2-.5 3.3L10 948.7c0 1.8.3 3.6.7 5.3-1 4.1-.9 9.2.8 13.3 3.1 7.4 10.4 13 18.4 13H969.9c.3 0 .5-.9.7-.9 1.2-.1 2.4-.7 3.5-1.1 8.9-1.9 15.8-9.4 15.8-18.9 0-.8-.2-1.7-.3-2.5.2-.9.4-2 .4-3zM346.5 611.8 67.6 320.3 499.8 62.6 930 320.5 647.2 622.7 504.5 482c-3.7-3.8-8.8-1.4-14.2-1.4h-.1c-5.3 0-10.4-2.3-14.2 1.5L346.5 611.8zM55.3 365.3 317 638.7l-266.5 262 4.8-535.4zm620.3 285 266.3-284.4 7.1 536.8-270.4-249.5-3-2.9zM77.8 940.4l412.7-418.8L920 940.4H77.8z"/></svg>