<svg xmlns="http://www.w3.org/2000/svg" viewBox="0 0 44 57" xml:space="preserve"><g fill="current"><path d="M33.501 21.75c0-6.208-5.053-11.259-11.262-11.259-6.209 0-11.262 5.051-11.262 11.259 0 6.21 5.053 11.263 11.262 11.263 6.209 0 11.262-5.053 11.262-11.263zm-19.124 0c0-4.333 3.527-7.859 7.862-7.859S30.1 17.416 30.1 21.75c0 4.335-3.526 7.862-7.861 7.862s-7.862-3.527-7.862-7.862z"/><path d="m22.237 57.358 1.225-1.271c.857-.892 21.017-21.952 21.017-33.845C44.479 9.978 34.501 0 22.238 0 9.976 0 0 9.978 0 22.242c0 11.893 20.156 32.953 21.014 33.844l1.223 1.272zm0-53.956c10.389 0 18.841 8.452 18.841 18.841 0 8.156-12.622 23.473-18.841 30.188-6.218-6.713-18.838-22.025-18.838-30.188 0-10.389 8.451-18.841 18.838-18.841z"/></g></svg>