<svg xmlns="http://www.w3.org/2000/svg" viewBox="0 0 1000 1000" xml:space="preserve"><path d="M957.03 51.91c-8.01 4.1-221.96 114.89-475.57 246.38C172.74 458.12 18.58 539.01 14.86 542.92c-4.69 4.88-5.47 7.03-4.49 12.11.59 3.32 3.13 7.82 5.67 9.96 2.54 2.34 84.8 31.85 192.46 69.36l187.96 65.26v245.22l4.69 5.27c5.28 6.25 16.02 7.43 21.88 2.74 1.76-1.56 32.43-46.5 67.8-99.65 35.37-53.15 64.67-96.91 64.87-97.3.39-.39 62.72 20.91 138.73 47.28 76.01 26.38 139.7 48.06 141.66 48.06 2.15 0 6.06-1.95 8.99-4.49 4.88-4.3 6.84-14.26 76.2-394.88C988.1 84.14 992.01 61.08 989.47 54.83c-2.54-6.06-8.99-10.55-15.44-10.55-1.37.01-8.99 3.33-17 7.63zm-13.68 87.53c-1.76 10.55-30.09 165.69-62.52 344.86-32.63 179.37-59.98 325.91-60.96 325.91-2.74 0-373.58-129.15-374.75-130.52-.78-.78 62.33-72.1 140.09-158.66 77.96-86.56 190.5-212 250.49-278.82 59.79-66.82 109.42-121.53 110-121.73.77.01-.4 8.61-2.35 18.96zm-51-11.72c-2.73 3.13-63.3 70.53-134.62 150.06-71.32 79.52-179.37 199.69-239.74 267.1l-110 122.51-41.42-14.26C182.51 589.42 74.85 551.71 73.48 550.54c-.78-.78 178.98-94.96 399.57-209.26s405.62-210.24 410.9-213.36c12.31-6.84 14.85-6.84 8.4-.2zM476.96 727.56c24.62 8.4 44.55 15.83 44.55 16.8 0 1.76-89.49 136.19-90.85 136.19-1.56 0-1.17-168.03.59-168.03.77 0 21.28 6.84 45.71 15.04z"/></svg>