<svg xmlns="http://www.w3.org/2000/svg" viewBox="0 0 458.112 458.112" xml:space="preserve"><path d="m417.769 442.064-30-428.112C387.219 6.093 380.683 0 372.806 0h-287.5c-7.877 0-14.413 6.093-14.963 13.952l-30 428.112a15 15 0 0 0 14.963 16.048h347.5a15 15 0 0 0 14.963-16.048zM71.394 428.112 99.292 30h259.529l27.897 398.112H71.394z"/><path d="M324.476 75.583c-8.284 0-15 6.716-15 15 0 44.343-36.076 80.419-80.42 80.419-44.343 0-80.419-36.076-80.419-80.419 0-8.284-6.716-15-15-15s-15 6.716-15 15c0 60.885 49.534 110.419 110.419 110.419 60.886 0 110.42-49.534 110.42-110.419 0-8.285-6.716-15-15-15z"/></svg>